<svg xmlns="http://www.w3.org/2000/svg" xmlns:xlink="http://www.w3.org/1999/xlink" width="512" height="512" version="1.1" viewBox="0 0 512 512"><title>matrixhub-icon-colorlight</title><g id="matrixhub-icon-colorlight" fill="none" fill-rule="evenodd" stroke="none" stroke-width="1"><g id="matrixhub" transform="translate(31.9626, 31.9635)"><rect id="bg-transparent" width="512" height="512" x="-31.963" y="-31.964"/><path id="Secondary" fill="#FFF" d="M32.0374025,139.716483 C44.4085809,139.716483 54.4374025,149.745304 54.4374025,162.116483 C54.4374025,164.209164 54.150434,166.234821 53.6137023,168.156247 L53.2619893,169.296297 C28.0664236,247.952646 60.0073332,336.256014 134.437402,379.228235 C207.827266,421.599892 298.7305,406.159713 354.413362,347.037659 L357.647804,343.509616 C361.761913,338.558984 367.970337,335.396483 374.917402,335.396483 C387.28858,335.396483 397.317402,345.425305 397.317402,357.796483 C397.317402,363.847158 394.918374,369.33751 391.019617,373.368238 C321.860748,450.907225 205.570494,472.027529 112.037402,418.026174 C19.5088418,364.604784 -20.4878447,255.137801 10.1707642,157.262753 C12.3834177,147.224035 21.3336687,139.716483 32.0374025,139.716483 Z M405.637402,113.956483 C414.403036,113.956483 421.992695,118.991423 425.6721,126.327022 C450.024298,176.862332 455.17457,235.675488 437.904041,290.810212 C435.691386,300.848931 426.741137,308.356483 416.037402,308.356483 C403.666225,308.356483 393.637402,298.32766 393.637402,285.956483 C393.637402,283.863802 393.924371,281.838145 394.461103,279.916719 L394.812815,278.776668 C409.051266,234.326604 405.04275,186.795691 385.430735,146.106085 C384.035225,143.148755 383.237402,139.84579 383.237402,136.356483 C383.237402,123.985304 393.266225,113.956483 405.637402,113.956483 Z M290.906174,10.199675 C299.911745,13.1221155 306.437402,21.5772246 306.437402,31.5564828 C306.437402,43.9276612 296.40858,53.9564828 284.037402,53.9564828 C282.403023,53.9564828 280.809526,53.7814444 279.274634,53.449091 L277.585364,52.9836275 C212.282898,32.4736825 140.50776,51.2955771 93.6614431,101.035306 L90.4270015,104.56335 C86.3128922,109.513983 80.1044681,112.676483 73.1574025,112.676483 C60.7862241,112.676483 50.7574025,102.647661 50.7574025,90.2764828 C50.7574025,84.2258073 53.1564314,78.7354552 57.0551884,74.704727 C115.434218,9.25179381 207.396921,-15.9997623 290.906174,10.199675 Z"/><path id="Primary" fill="#33DE72" d="M356.837402,97.6364828 C370.975892,97.6364828 382.437402,86.1749724 382.437402,72.0364828 C382.437402,57.8979932 370.975892,46.4364828 356.837402,46.4364828 C342.698913,46.4364828 331.237402,57.8979932 331.237402,72.0364828 C331.237402,86.1749724 342.698913,97.6364828 356.837402,97.6364828 Z M163.520974,201.767832 L154.131344,258.696745 C151.876874,270.840076 146.450186,284.902971 139.966092,291.663176 C136.095587,295.710953 127.456778,301.09408 117.68076,304.933208 L103.21705,310.593443 C98.0527199,312.614454 92.2278495,310.066291 90.206838,304.90196 C89.5267506,303.16412 89.3444052,301.27114 89.6802629,299.435436 L116.918266,150.560183 C118.372638,142.610999 125.299503,136.836483 133.380637,136.836483 L157.755118,136.836483 C167.012409,136.836483 176.309602,140.133126 181.317318,145.453657 C182.394676,146.580358 183.352326,147.832248 184.230172,149.125867 L224.037402,207.26139 L263.844633,149.125867 C264.722479,147.832248 265.680129,146.580358 266.757487,145.453657 C271.765202,140.133126 281.062396,136.836483 290.319687,136.836483 L314.694167,136.836483 C322.775302,136.836483 329.702167,142.610999 331.156538,150.560183 L358.394542,299.435436 C358.730399,301.27114 358.548054,303.16412 357.867967,304.90196 C355.846956,310.066291 350.022086,312.614454 344.857754,310.593443 L330.394046,304.933208 C320.618026,301.09408 311.979218,295.710953 308.108713,291.663176 C301.624618,284.902971 296.19793,270.840076 293.943462,258.696745 L284.553831,201.767832 L224.037402,290.59039 L163.520974,201.767832 Z"/></g></g></svg>