<svg width="16" height="16" viewBox="0 0 13.3333 13.3334" fill="none" xmlns="http://www.w3.org/2000/svg">
  <path
    fill-rule="evenodd"
    clip-rule="evenodd"
    d="M4.66667 1.33333C3.5621 1.33333 2.66667 2.22876 2.66667 3.33333C2.66667 4.4379 3.5621 5.33333 4.66667 5.33333C5.77124 5.33333 6.66667 4.4379 6.66667 3.33333C6.66667 2.22876 5.77124 1.33333 4.66667 1.33333ZM1.33333 3.33333C1.33333 1.49238 2.82572 0 4.66667 0C6.50762 0 8 1.49238 8 3.33333C8 5.17428 6.50762 6.66667 4.66667 6.66667C2.82572 6.66667 1.33333 5.17428 1.33333 3.33333ZM8.6875 0.587977C8.77883 0.231293 9.14201 0.0161777 9.49869 0.107503C10.2157 0.291088 10.8512 0.708088 11.3051 1.29276C11.7589 1.87744 12.0052 2.59653 12.0052 3.33667C12.0052 4.07681 11.7589 4.7959 11.3051 5.38058C10.8512 5.96525 10.2157 6.38225 9.49869 6.56584C9.14201 6.65716 8.77883 6.44205 8.6875 6.08536C8.59617 5.72868 8.81129 5.3655 9.16797 5.27417C9.59818 5.16402 9.97949 4.91382 10.2518 4.56301C10.5241 4.21221 10.6719 3.78075 10.6719 3.33667C10.6719 2.89259 10.5241 2.46113 10.2518 2.11033C9.97949 1.75952 9.59818 1.50932 9.16797 1.39917C8.81129 1.30784 8.59617 0.944661 8.6875 0.587977ZM3.33333 9.33333C2.8029 9.33333 2.29419 9.54405 1.91912 9.91912C1.54405 10.2942 1.33333 10.8029 1.33333 11.3333V12.6667C1.33333 13.0349 1.03486 13.3333 0.666667 13.3333C0.298477 13.3333 0 13.0349 0 12.6667V11.3333C0 10.4493 0.351189 9.60143 0.976311 8.97631C1.60143 8.35119 2.44928 8 3.33333 8H6C6.88406 8 7.7319 8.35119 8.35702 8.97631C8.98214 9.60143 9.33333 10.4493 9.33333 11.3333V12.6667C9.33333 13.0349 9.03486 13.3333 8.66667 13.3333C8.29848 13.3333 8 13.0349 8 12.6667V11.3333C8 10.8029 7.78929 10.2942 7.41421 9.91912C7.03914 9.54405 6.53043 9.33333 6 9.33333H3.33333ZM10.0212 8.60003C10.1132 8.24353 10.4768 8.02914 10.8333 8.12118C11.5457 8.3051 12.1772 8.71952 12.6294 9.29985C13.0816 9.88018 13.3291 10.5938 13.3333 11.3295L13.3333 11.3334L13.3333 12.6667C13.3333 13.0349 13.0349 13.3334 12.6667 13.3334C12.2985 13.3334 12 13.0349 12 12.6667V11.3353C11.9971 10.8946 11.8486 10.4671 11.5776 10.1194C11.3063 9.77119 10.9274 9.52253 10.5 9.41218C10.1435 9.32014 9.92912 8.95653 10.0212 8.60003Z"
    fill="currentColor"
  />
</svg>
