<svg width="16" height="16" viewBox="0 0 13.3333 12.6667" fill="none" xmlns="http://www.w3.org/2000/svg">
  <path
    fill-rule="evenodd"
    clip-rule="evenodd"
    d="M6.39591 0.0574589C6.56828 -0.019153 6.76505 -0.019153 6.93743 0.0574589L12.9374 2.72413C13.1782 2.83113 13.3333 3.06987 13.3333 3.33333V12C13.3333 12.3682 13.0349 12.6667 12.6667 12.6667C12.2985 12.6667 12 12.3682 12 12V3.76658L6.66667 1.39621L1.33333 3.76658V12C1.33333 12.3682 1.03486 12.6667 0.666667 12.6667C0.298477 12.6667 0 12.3682 0 12V3.33333C0 3.06987 0.155156 2.83113 0.395908 2.72413L6.39591 0.0574589ZM4.39052 5.05719C4.64057 4.80714 4.97971 4.66667 5.33333 4.66667H6.66667C7.02029 4.66667 7.35943 4.80714 7.60948 5.05719C7.85952 5.30724 8 5.64638 8 6H10C10.3682 6 10.6667 6.29848 10.6667 6.66667V12C10.6667 12.3682 10.3682 12.6667 10 12.6667H3.33333C2.96514 12.6667 2.66667 12.3682 2.66667 12V8C2.66667 7.63181 2.96514 7.33333 3.33333 7.33333H4V6C4 5.64638 4.14048 5.30724 4.39052 5.05719ZM4 8.66667H6.66667V11.3333H4V8.66667ZM8 11.3333H9.33333V7.33333H8V11.3333ZM6.66667 6H5.33333V7.33333H6.66667V6Z"
    fill="currentColor"
  />
</svg>
