<svg width="16" height="16" viewBox="0 0 12 12" fill="none" xmlns="http://www.w3.org/2000/svg">
  <path
    fill-rule="evenodd"
    clip-rule="evenodd"
    d="M1.66667 1.33333C1.48257 1.33333 1.33333 1.48257 1.33333 1.66667C1.33333 1.85076 1.48257 2 1.66667 2C1.69449 2 1.72152 1.99659 1.74736 1.99017C1.75232 1.98855 1.75731 1.98699 1.76233 1.98549C1.76741 1.98396 1.77249 1.9825 1.77758 1.9811C1.90715 1.9354 2 1.81188 2 1.66667C2 1.48257 1.85076 1.33333 1.66667 1.33333ZM2.74424 2.93817C3.10462 2.63246 3.33333 2.17627 3.33333 1.66667C3.33333 0.746192 2.58714 0 1.66667 0C0.746192 0 0 0.746192 0 1.66667C0 2.51964 0.640765 3.22296 1.4672 3.32152L1.99204 5.07056C0.809142 5.6789 0 6.91163 0 8.33333C0 10.3584 1.64162 12 3.66667 12C5.08827 12 6.32092 11.191 6.92931 10.0082L8.67848 10.5328C8.77707 11.3593 9.48038 12 10.3333 12C11.2538 12 12 11.2538 12 10.3333C12 9.41286 11.2538 8.66667 10.3333 8.66667C9.82371 8.66667 9.36751 8.8954 9.0618 9.2558L7.31202 8.73099C7.32611 8.60037 7.33333 8.4677 7.33333 8.33333C7.33333 7.56168 7.09497 6.84571 6.68785 6.25502L9.72431 3.21856C9.91296 3.29265 10.1184 3.33333 10.3333 3.33333C11.2538 3.33333 12 2.58714 12 1.66667C12 0.746192 11.2538 0 10.3333 0C9.41286 0 8.66667 0.746192 8.66667 1.66667C8.66667 1.88164 8.70737 2.0871 8.78148 2.27577L5.74505 5.3122C5.15435 4.90505 4.43835 4.66667 3.66667 4.66667C3.5324 4.66667 3.39982 4.67388 3.2693 4.68795L2.74424 2.93817ZM10.1228 1.92514C10.1153 1.9168 10.1075 1.90862 10.0995 1.90058C10.0914 1.89254 10.0832 1.88474 10.0749 1.87719C10.0281 1.81979 10 1.74651 10 1.66667C10 1.48257 10.1492 1.33333 10.3333 1.33333C10.5174 1.33333 10.6667 1.48257 10.6667 1.66667C10.6667 1.85076 10.5174 2 10.3333 2C10.2535 2 10.1802 1.97194 10.1228 1.92514ZM10.01 10.252C10.0116 10.2472 10.0131 10.2424 10.0145 10.2375C10.0159 10.2327 10.0173 10.2279 10.0187 10.2231C10.0642 10.0932 10.1879 10 10.3333 10C10.5174 10 10.6667 10.1492 10.6667 10.3333C10.6667 10.5174 10.5174 10.6667 10.3333 10.6667C10.1492 10.6667 10 10.5174 10 10.3333C10 10.3053 10.0035 10.278 10.01 10.252ZM3.66667 6C2.378 6 1.33333 7.04467 1.33333 8.33333C1.33333 9.622 2.378 10.6667 3.66667 10.6667C4.95533 10.6667 6 9.622 6 8.33333C6 7.04467 4.95533 6 3.66667 6Z"
    fill="currentColor"
  />
</svg>
