<svg xmlns="http://www.w3.org/2000/svg" width="20" height="20" fill="none" viewBox="0 0 20 20"><path fill="currentColor" fill-rule="evenodd" d="M4.41007 4.65044C4.17519 4.85869 4.16667 4.97872 4.16667 5C4.16667 5.02128 4.17519 5.14131 4.41007 5.34956C4.64399 5.55695 5.03001 5.78179 5.57856 5.98749C6.6695 6.39659 8.23252 6.66667 10 6.66667C11.7675 6.66667 13.3305 6.39659 14.4214 5.98749C14.97 5.78179 15.356 5.55695 15.5899 5.34956C15.8248 5.14131 15.8333 5.02128 15.8333 5C15.8333 4.97872 15.8248 4.85869 15.5899 4.65044C15.356 4.44305 14.97 4.21821 14.4214 4.01251C13.3305 3.6034 11.7675 3.33333 10 3.33333C8.23252 3.33333 6.6695 3.6034 5.57856 4.01251C5.03001 4.21821 4.64399 4.44305 4.41007 4.65044ZM15.8333 7.18016C15.5757 7.31651 15.2978 7.43885 15.0066 7.54804C13.6847 8.04376 11.9144 8.33333 10 8.33333C8.08558 8.33333 6.31527 8.04376 4.99335 7.54804C4.70218 7.43885 4.42425 7.31651 4.16667 7.18016V10C4.16667 10.0156 4.17241 10.1328 4.40009 10.3389C4.62748 10.5448 5.01135 10.7748 5.57856 10.9875C6.71037 11.4119 8.30127 11.6667 10 11.6667C11.6987 11.6667 13.2896 11.4119 14.4214 10.9875C14.9886 10.7748 15.3725 10.5448 15.5999 10.3389C15.8276 10.1328 15.8333 10.0156 15.8333 10V7.18016ZM15.8333 12.1798C15.5781 12.3152 15.3008 12.4378 15.0066 12.548C13.638 13.0613 11.8375 13.3333 10 13.3333C8.16251 13.3333 6.36203 13.0613 4.99335 12.548C4.69925 12.4378 4.42195 12.3152 4.16667 12.1798V15C4.16667 15.0156 4.17241 15.1328 4.40009 15.3389C4.62748 15.5448 5.01135 15.7748 5.57856 15.9875C6.71037 16.4119 8.30127 16.6667 10 16.6667C11.6987 16.6667 13.2896 16.4119 14.4214 15.9875C14.9886 15.7748 15.3725 15.5448 15.5999 15.3389C15.8276 15.1328 15.8333 15.0156 15.8333 15V12.1798ZM17.5 15C17.5 15.6475 17.1546 16.1797 16.7185 16.5745C16.2821 16.9695 15.6897 17.2919 15.0066 17.548C13.638 18.0613 11.8375 18.3333 10 18.3333C8.16251 18.3333 6.36203 18.0613 4.99335 17.548C4.31031 17.2919 3.71788 16.9695 3.28152 16.5745C2.84545 16.1797 2.5 15.6475 2.5 15V5C2.5 4.33092 2.86458 3.79328 3.30439 3.40334C3.74518 3.01254 4.33547 2.69866 4.99335 2.45196C6.31527 1.95624 8.08558 1.66667 10 1.66667C11.9144 1.66667 13.6847 1.95624 15.0066 2.45196C15.6645 2.69866 16.2548 3.01254 16.6956 3.40334C17.1354 3.79328 17.5 4.33092 17.5 5V15Z" clip-rule="evenodd"/></svg>