<svg xmlns="http://www.w3.org/2000/svg" width="34" height="34" fill="none" viewBox="0 0 34 34"><path fill="#15AABF" d="M27.9912 6.46019C27.3216 7.22935 26.1545 7.31105 25.3844 6.64268C24.6144 5.97431 24.533 4.80897 25.2026 4.03981C25.8723 3.27065 27.0394 3.18895 27.8094 3.85732C28.5795 4.52569 28.6609 5.69103 27.9912 6.46019Z"/><path fill="#15AABF" d="M13.4894 10.7067C13.5708 10.7918 13.6431 10.8863 13.7094 10.984L16.6866 15.3617L19.6367 10.9856C19.7091 10.8816 19.7889 10.7839 19.8733 10.6941C20.2515 10.3003 20.9686 10.0562 21.6391 10.0562H23.4472C24.0756 10.0562 24.6151 10.5031 24.7319 11.1205L26.8435 22.2775C26.924 22.7032 26.6443 23.1136 26.2186 23.1941C26.0737 23.2215 25.9241 23.2076 25.7869 23.1539L24.7476 22.7473C24.0093 22.4575 23.3569 22.051 23.0631 21.7454C22.575 21.235 22.1651 20.1733 21.9964 19.2581L21.2052 14.9883L16.7032 21.6675L12.1454 14.9584L11.4363 19.2565C11.2661 20.1733 10.8563 21.235 10.3666 21.7454C10.0743 22.051 9.42188 22.4575 8.6836 22.7473L7.635 23.1576C7.23152 23.3154 6.77647 23.1163 6.61862 22.7128C6.5655 22.5771 6.55127 22.4292 6.57751 22.2858L8.61943 11.1283C8.73308 10.5073 9.27423 10.0562 9.90554 10.0562H11.71C12.4091 10.0562 13.1112 10.305 13.4894 10.7067Z"/><path fill="#343A40" d="M0.840457 11.3135C1.13486 10.46 2.06643 10.0062 2.92114 10.2999C3.68218 10.5615 4.13633 11.3355 4.0016 12.119L3.9067 12.4568L3.78272 12.866C2.37579 17.7897 3.87275 23.1455 7.75064 26.6121L8.0555 26.8764L8.06047 26.9224L8.36699 27.1764C13.9912 31.6069 22.1312 30.8535 26.847 25.4362C27.4402 24.7547 28.4741 24.6824 29.1562 25.2745C29.8381 25.8665 29.9102 26.8985 29.3172 27.5797L29.0109 27.9221C23.0184 34.4423 12.9548 35.1578 6.10242 29.5529L5.7816 29.2839L5.78044 29.2301L5.40833 28.9044C0.607271 24.5078 -1.15754 17.7512 0.761818 11.6183C0.786438 11.4938 0.810182 11.4013 0.840457 11.3135ZM29.4834 8.42965C30.296 8.03376 31.2758 8.37054 31.6719 9.18169C33.3516 12.5257 33.8247 17.3291 32.7923 21.1546L32.5496 21.9412C32.2574 22.7881 31.3258 23.2419 30.4711 22.9481C29.7101 22.6866 29.2559 21.9125 29.3906 21.1291L29.4527 20.9025L29.6094 20.409C30.5035 17.2751 30.172 13.6493 28.7381 10.6321C28.3346 9.80591 28.6689 8.82651 29.4834 8.42965ZM15.3927 0.0604917C17.4133 -0.0986533 19.4042 0.0562948 21.1609 0.524423L21.6553 0.666672L21.709 0.71326L22.0092 0.783894C22.852 1.05799 23.3221 1.97975 23.0428 2.83806C22.7939 3.60259 22.0265 4.06999 21.2395 3.94934L20.9638 3.88315L20.8813 3.85235L20.3147 3.67608C17.7484 2.98322 14.8532 3.10495 12.2198 3.99207C10.0207 4.80564 8.00194 6.17616 6.47181 7.89693C5.87139 8.50088 4.88912 8.54051 4.23605 7.9736C3.62874 7.44641 3.49807 6.55883 3.91686 5.88271L4.06955 5.6796L4.48524 5.21777C6.13894 3.48969 7.33889 2.5181 9.11527 1.67322C10.84 0.73701 12.8474 0.260968 15.3927 0.0604917Z"/></svg>