<svg xmlns="http://www.w3.org/2000/svg" width="16" height="16" fill="none" viewBox="0 0 16 16"><path fill="#868E96" fill-rule="evenodd" d="M1.91879 2.58579C2.29387 2.21071 2.80258 2 3.33301 2H7.99968C8.53011 2 9.03882 2.21071 9.41389 2.58579C9.78896 2.96086 9.99968 3.46957 9.99968 4V5.33333C9.99968 5.70152 9.7012 6 9.33301 6C8.96482 6 8.66634 5.70152 8.66634 5.33333V4C8.66634 3.82319 8.5961 3.65362 8.47108 3.5286C8.34606 3.40357 8.17649 3.33333 7.99968 3.33333H3.33301C3.1562 3.33333 2.98663 3.40357 2.8616 3.5286C2.73658 3.65362 2.66634 3.82319 2.66634 4V12C2.66634 12.1768 2.73658 12.3464 2.8616 12.4714C2.98663 12.5964 3.1562 12.6667 3.33301 12.6667H7.99968C8.17649 12.6667 8.34606 12.5964 8.47108 12.4714C8.5961 12.3464 8.66634 12.1768 8.66634 12V10.6667C8.66634 10.2985 8.96482 10 9.33301 10C9.7012 10 9.99968 10.2985 9.99968 10.6667V12C9.99968 12.5304 9.78896 13.0391 9.41389 13.4142C9.03882 13.7893 8.53011 14 7.99968 14H3.33301C2.80257 14 2.29387 13.7893 1.91879 13.4142C1.54372 13.0391 1.33301 12.5304 1.33301 12V4C1.33301 3.46957 1.54372 2.96086 1.91879 2.58579ZM11.5283 5.5286C11.7886 5.26825 12.2107 5.26825 12.4711 5.5286L14.4711 7.5286C14.7314 7.78895 14.7314 8.21106 14.4711 8.4714L12.4711 10.4714C12.2107 10.7318 11.7886 10.7318 11.5283 10.4714C11.2679 10.2111 11.2679 9.78895 11.5283 9.5286L12.3902 8.66667H4.66634C4.29815 8.66667 3.99967 8.36819 3.99967 8C3.99967 7.63181 4.29815 7.33333 4.66634 7.33333H12.3902L11.5283 6.4714C11.2679 6.21106 11.2679 5.78894 11.5283 5.5286Z" clip-rule="evenodd"/></svg>