<svg xmlns="http://www.w3.org/2000/svg" width="20" height="20" fill="none" viewBox="0 0 20 20"><path fill="currentColor" fill-rule="evenodd" d="M9.59145 1.77368C9.84513 1.63099 10.1549 1.63099 10.4086 1.77368L17.0752 5.52368C17.3376 5.67128 17.5 5.94894 17.5 6.25V13.75C17.5 14.0511 17.3376 14.3287 17.0752 14.4763L10.4086 18.2263C10.1549 18.369 9.84513 18.369 9.59145 18.2263L2.92478 14.4763C2.66238 14.3287 2.5 14.0511 2.5 13.75V6.25C2.5 5.94894 2.66238 5.67128 2.92478 5.52368L9.59145 1.77368ZM4.16667 7.67487L9.16667 10.4874V16.0751L4.16667 13.2626V7.67487ZM10.8333 16.0751L15.8333 13.2626V7.67487L10.8333 10.4874V16.0751ZM10 9.04387L14.9669 6.25L10 3.45612L5.03311 6.25L10 9.04387Z" clip-rule="evenodd"/></svg>