<svg xmlns="http://www.w3.org/2000/svg" width="20" height="20" fill="none" viewBox="0 0 20 20"><path fill="currentColor" fill-rule="evenodd" d="M9.58366 3.33333C9.25214 3.33333 8.9342 3.46503 8.69978 3.69945C8.46535 3.93387 8.33366 4.25181 8.33366 4.58333V10C8.33366 10.4602 7.96056 10.8333 7.50033 10.8333C7.04009 10.8333 6.66699 10.4602 6.66699 10V4.58333C6.66699 3.80978 6.97428 3.06792 7.52126 2.52094C8.06825 1.97396 8.81011 1.66667 9.58366 1.66667C10.3572 1.66667 11.0991 1.97396 11.6461 2.52094C12.193 3.06792 12.5003 3.80978 12.5003 4.58333V5C12.5003 5.46024 12.1272 5.83333 11.667 5.83333C11.2068 5.83333 10.8337 5.46024 10.8337 5V4.58333C10.8337 4.25181 10.702 3.93387 10.4675 3.69945C10.2331 3.46503 9.91518 3.33333 9.58366 3.33333ZM9.16699 7.5C9.16699 7.03976 9.54009 6.66667 10.0003 6.66667H15.417C16.1905 6.66667 16.9324 6.97396 17.4794 7.52094C18.0264 8.06792 18.3337 8.80978 18.3337 9.58333C18.3337 10.3569 18.0264 11.0987 17.4794 11.6457C16.9324 12.1927 16.1905 12.5 15.417 12.5H15.0003C14.5401 12.5 14.167 12.1269 14.167 11.6667C14.167 11.2064 14.5401 10.8333 15.0003 10.8333H15.417C15.7485 10.8333 16.0665 10.7016 16.3009 10.4672C16.5353 10.2328 16.667 9.91485 16.667 9.58333C16.667 9.25181 16.5353 8.93387 16.3009 8.69945C16.0665 8.46503 15.7485 8.33333 15.417 8.33333H10.0003C9.54009 8.33333 9.16699 7.96024 9.16699 7.5ZM4.58366 9.16667C4.25214 9.16667 3.9342 9.29836 3.69978 9.53278C3.46535 9.7672 3.33366 10.0851 3.33366 10.4167C3.33366 10.7482 3.46535 11.0661 3.69978 11.3005C3.9342 11.535 4.25214 11.6667 4.58366 11.6667H10.0003C10.4606 11.6667 10.8337 12.0398 10.8337 12.5C10.8337 12.9602 10.4606 13.3333 10.0003 13.3333H4.58366C3.81011 13.3333 3.06825 13.026 2.52126 12.4791C1.97428 11.9321 1.66699 11.1902 1.66699 10.4167C1.66699 9.64312 1.97428 8.90125 2.52126 8.35427C3.06825 7.80729 3.81011 7.5 4.58366 7.5H5.00033C5.46056 7.5 5.83366 7.8731 5.83366 8.33333C5.83366 8.79357 5.46056 9.16667 5.00033 9.16667H4.58366ZM12.5003 9.16667C12.9606 9.16667 13.3337 9.53976 13.3337 10V15.4167C13.3337 16.1902 13.0264 16.9321 12.4794 17.4791C11.9324 18.026 11.1905 18.3333 10.417 18.3333C9.64344 18.3333 8.90158 18.026 8.3546 17.4791C7.80762 16.9321 7.50033 16.1902 7.50033 15.4167V15C7.50033 14.5398 7.87342 14.1667 8.33366 14.1667C8.7939 14.1667 9.16699 14.5398 9.16699 15V15.4167C9.16699 15.7482 9.29869 16.0661 9.53311 16.3005C9.76753 16.535 10.0855 16.6667 10.417 16.6667C10.7485 16.6667 11.0665 16.535 11.3009 16.3005C11.5353 16.0661 11.667 15.7482 11.667 15.4167V10C11.667 9.53976 12.0401 9.16667 12.5003 9.16667Z" clip-rule="evenodd"/></svg>