<svg xmlns="http://www.w3.org/2000/svg" width="16" height="16" fill="none" viewBox="0 0 16 16"><path fill="#868E96" fill-rule="evenodd" d="M7.99967 2.66667C6.8951 2.66667 5.99967 3.5621 5.99967 4.66667C5.99967 5.77124 6.8951 6.66667 7.99967 6.66667C9.10424 6.66667 9.99967 5.77124 9.99967 4.66667C9.99967 3.5621 9.10424 2.66667 7.99967 2.66667ZM4.66634 4.66667C4.66634 2.82572 6.15873 1.33334 7.99967 1.33334C9.84062 1.33334 11.333 2.82572 11.333 4.66667C11.333 6.50762 9.84062 8 7.99967 8C6.15873 8 4.66634 6.50762 4.66634 4.66667ZM6.66634 10.6667C6.13591 10.6667 5.6272 10.8774 5.25213 11.2525C4.87705 11.6275 4.66634 12.1362 4.66634 12.6667V14C4.66634 14.3682 4.36786 14.6667 3.99967 14.6667C3.63148 14.6667 3.33301 14.3682 3.33301 14V12.6667C3.33301 11.7826 3.6842 10.9348 4.30932 10.3096C4.93444 9.68453 5.78229 9.33334 6.66634 9.33334H9.33301C10.2171 9.33334 11.0649 9.68453 11.69 10.3096C12.3152 10.9348 12.6663 11.7826 12.6663 12.6667V14C12.6663 14.3682 12.3679 14.6667 11.9997 14.6667C11.6315 14.6667 11.333 14.3682 11.333 14V12.6667C11.333 12.1362 11.1223 11.6275 10.7472 11.2525C10.3721 10.8774 9.86344 10.6667 9.33301 10.6667H6.66634Z" clip-rule="evenodd"/></svg>